<svg xmlns="http://www.w3.org/2000/svg" xmlns:xlink="http://www.w3.org/1999/xlink" width="500" zoomAndPan="magnify" viewBox="0 0 375 374.999991" height="500" preserveAspectRatio="xMidYMid meet" version="1.0"><defs><clipPath id="752a9db140"><path d="M 28 54 L 347 54 L 347 325.726562 L 28 325.726562 Z M 28 54 " clip-rule="nonzero"/></clipPath></defs><g clip-path="url(#752a9db140)"><path fill="#ffffff" d="M 331.570312 88.394531 C 308.53125 52.089844 260.484375 49.171875 230.464844 59.453125 C 207.171875 67.449219 190.417969 89.664062 187.496094 93.472656 C 184.578125 89.664062 168.457031 67.894531 145.164062 59.960938 C 115.144531 49.679688 66.464844 52.089844 43.425781 88.394531 C 34.285156 102.800781 5.535156 149.386719 67.859375 221.359375 C 67.859375 221.359375 126.820312 289.460938 181.277344 322.402344 C 183.753906 323.859375 186.925781 325.828125 187.179688 325.703125 C 187.433594 325.828125 190.925781 323.925781 193.398438 322.402344 C 247.855469 289.460938 307.132812 221.359375 307.132812 221.359375 C 369.460938 149.386719 340.707031 102.800781 331.570312 88.394531 Z M 331.570312 88.394531 " fill-opacity="1" fill-rule="nonzero"/></g><path fill="#1e154b" d="M 177.53125 257.917969 C 175.375 257.917969 173.40625 256.585938 172.644531 254.492188 L 135.390625 155.035156 L 121.300781 200.289062 C 120.601562 202.445312 118.570312 204.097656 116.285156 204.097656 L 76.300781 204.097656 C 73.382812 204.097656 71.03125 201.621094 71.03125 198.703125 C 71.03125 195.78125 73.382812 193.308594 76.300781 193.308594 L 112.414062 193.308594 L 129.929688 137.265625 C 130.628906 135.105469 132.535156 133.648438 134.820312 133.582031 C 137.101562 133.519531 139.070312 134.917969 139.894531 137.011719 L 176.707031 235.257812 L 196.066406 161.003906 C 196.636719 158.84375 198.476562 157.320312 200.636719 157.128906 C 202.792969 156.941406 204.886719 158.082031 205.839844 160.113281 L 221.261719 192.546875 L 238.207031 124.570312 C 238.777344 122.351562 240.746094 120.699219 243.03125 120.636719 C 245.316406 120.507812 247.472656 121.96875 248.234375 124.128906 L 260.675781 159.480469 L 308.847656 159.605469 C 311.765625 159.605469 314.050781 161.574219 314.050781 164.429688 C 314.050781 167.347656 311.703125 169.253906 308.785156 169.253906 L 256.867188 169.507812 C 254.644531 169.507812 252.679688 168.300781 251.917969 166.207031 L 244.046875 143.929688 L 227.734375 209.175781 C 227.226562 211.332031 225.386719 212.917969 223.164062 213.171875 C 220.945312 213.363281 218.851562 212.222656 217.898438 210.191406 L 202.347656 177.566406 L 182.417969 253.984375 C 181.847656 256.203125 179.878906 257.789062 177.597656 257.917969 C 177.722656 257.917969 177.660156 257.917969 177.53125 257.917969 Z M 177.53125 257.917969 " fill-opacity="1" fill-rule="nonzero"/><path fill="#1e154b" d="M 87.089844 197.558594 C 87.089844 198.304688 87.019531 199.042969 86.871094 199.777344 C 86.726562 200.507812 86.511719 201.21875 86.226562 201.90625 C 85.941406 202.597656 85.589844 203.25 85.175781 203.871094 C 84.761719 204.492188 84.289062 205.066406 83.761719 205.59375 C 83.234375 206.121094 82.660156 206.589844 82.042969 207.003906 C 81.421875 207.421875 80.765625 207.769531 80.078125 208.054688 C 79.386719 208.339844 78.675781 208.554688 77.945312 208.703125 C 77.214844 208.847656 76.476562 208.921875 75.730469 208.921875 C 74.984375 208.921875 74.246094 208.847656 73.511719 208.703125 C 72.78125 208.554688 72.070312 208.339844 71.382812 208.054688 C 70.691406 207.769531 70.039062 207.421875 69.417969 207.003906 C 68.796875 206.589844 68.222656 206.121094 67.695312 205.59375 C 67.167969 205.066406 66.699219 204.492188 66.285156 203.871094 C 65.871094 203.25 65.519531 202.597656 65.234375 201.90625 C 64.949219 201.21875 64.734375 200.507812 64.585938 199.777344 C 64.441406 199.042969 64.367188 198.304688 64.367188 197.558594 C 64.367188 196.8125 64.441406 196.074219 64.585938 195.34375 C 64.734375 194.613281 64.949219 193.902344 65.234375 193.210938 C 65.519531 192.523438 65.867188 191.867188 66.285156 191.246094 C 66.699219 190.628906 67.167969 190.054688 67.695312 189.527344 C 68.222656 189 68.796875 188.527344 69.417969 188.113281 C 70.039062 187.699219 70.691406 187.347656 71.382812 187.0625 C 72.070312 186.777344 72.78125 186.5625 73.511719 186.417969 C 74.246094 186.273438 74.984375 186.199219 75.730469 186.199219 C 76.476562 186.199219 77.214844 186.273438 77.945312 186.417969 C 78.675781 186.5625 79.386719 186.777344 80.078125 187.0625 C 80.765625 187.347656 81.421875 187.699219 82.042969 188.113281 C 82.660156 188.527344 83.234375 189 83.761719 189.527344 C 84.289062 190.054688 84.761719 190.628906 85.175781 191.246094 C 85.589844 191.867188 85.941406 192.523438 86.226562 193.210938 C 86.511719 193.902344 86.726562 194.613281 86.871094 195.34375 C 87.019531 196.074219 87.089844 196.8125 87.089844 197.558594 Z M 87.089844 197.558594 " fill-opacity="1" fill-rule="nonzero"/><path fill="#1e154b" d="M 325.160156 164.621094 C 325.160156 165.367188 325.085938 166.105469 324.941406 166.835938 C 324.796875 167.566406 324.578125 168.277344 324.292969 168.96875 C 324.007812 169.65625 323.660156 170.3125 323.246094 170.929688 C 322.828125 171.550781 322.359375 172.125 321.832031 172.652344 C 321.304688 173.179688 320.730469 173.652344 320.109375 174.066406 C 319.488281 174.480469 318.835938 174.832031 318.144531 175.117188 C 317.457031 175.402344 316.746094 175.617188 316.015625 175.761719 C 315.28125 175.90625 314.542969 175.980469 313.796875 175.980469 C 313.050781 175.980469 312.3125 175.90625 311.582031 175.761719 C 310.851562 175.617188 310.140625 175.402344 309.449219 175.117188 C 308.761719 174.832031 308.105469 174.480469 307.488281 174.066406 C 306.867188 173.652344 306.292969 173.179688 305.765625 172.652344 C 305.238281 172.125 304.765625 171.550781 304.351562 170.929688 C 303.9375 170.3125 303.585938 169.65625 303.300781 168.96875 C 303.015625 168.277344 302.800781 167.566406 302.65625 166.835938 C 302.511719 166.105469 302.4375 165.367188 302.4375 164.621094 C 302.4375 163.875 302.511719 163.136719 302.65625 162.402344 C 302.800781 161.671875 303.015625 160.960938 303.300781 160.273438 C 303.585938 159.582031 303.9375 158.929688 304.351562 158.308594 C 304.765625 157.6875 305.238281 157.113281 305.765625 156.585938 C 306.292969 156.058594 306.867188 155.589844 307.488281 155.171875 C 308.105469 154.757812 308.761719 154.410156 309.449219 154.125 C 310.140625 153.839844 310.851562 153.621094 311.582031 153.476562 C 312.3125 153.332031 313.050781 153.257812 313.796875 153.257812 C 314.542969 153.257812 315.28125 153.332031 316.015625 153.476562 C 316.746094 153.621094 317.457031 153.839844 318.144531 154.125 C 318.835938 154.410156 319.488281 154.757812 320.109375 155.171875 C 320.730469 155.589844 321.304688 156.058594 321.832031 156.585938 C 322.359375 157.113281 322.828125 157.6875 323.246094 158.308594 C 323.660156 158.929688 324.007812 159.582031 324.292969 160.273438 C 324.578125 160.960938 324.796875 161.671875 324.941406 162.402344 C 325.085938 163.136719 325.160156 163.875 325.160156 164.621094 Z M 325.160156 164.621094 " fill-opacity="1" fill-rule="nonzero"/></svg>